<?xml version="1.0" encoding="UTF-8"?>
<!DOCTYPE svg PUBLIC "-//W3C//DTD SVG 1.1//EN" "http://www.w3.org/Graphics/SVG/1.1/DTD/svg11.dtd">
<!-- Creator: CorelDRAW -->
<svg xmlns="http://www.w3.org/2000/svg" xml:space="preserve" width="1.70666in" height="1.70666in" version="1.1" style="shape-rendering:geometricPrecision; text-rendering:geometricPrecision; image-rendering:optimizeQuality; fill-rule:evenodd; clip-rule:evenodd"
viewBox="0 0 1706.66 1706.66"
 xmlns:xlink="http://www.w3.org/1999/xlink"
 xmlns:xodm="http://www.corel.com/coreldraw/odm/2003">
 <defs>
  <style type="text/css">
   <![CDATA[
    .fil1 {fill:black}
    .fil2 {fill:#567F93}
    .fil0 {fill:#6496AF}
    .fil6 {fill:#B3B3B3}
    .fil3 {fill:#B7D7FE}
    .fil5 {fill:#D7D7D7}
    .fil4 {fill:white}
   ]]>
  </style>
 </defs>
 <g id="Layer_x0020_1">
  <metadata id="CorelCorpID_0Corel-Layer"/>
  <path class="fil0" d="M376.46 874.88l505.38 -505.38 -98.94 -98.95c-23.31,-23.3 -61.52,-23.33 -84.83,-0.02l-420.56 420.59c-23.39,23.39 -23.39,61.42 0,84.8l98.95 98.95z"/>
  <path class="fil1" d="M1309.48 1699.44c-106.43,0 -206.21,-41.17 -280.96,-115.92l-779.29 -779.31c-38.94,-38.94 -38.95,-102.42 0,-141.36l420.57 -420.57c38.94,-38.94 102.41,-38.95 141.36,-0.02l779.3 779.3c249.09,249.1 72.47,677.88 -280.98,677.88zm-569 -1446.35c-16.08,0 -31.15,6.19 -42.41,17.46l-420.56 420.59c-23.39,23.39 -23.39,61.42 0,84.8l779.3 779.3c139.04,139.04 366.33,139.02 505.36,-0.02 139.33,-139.32 139.33,-366.03 0,-505.37l-779.27 -779.29c-11.27,-11.26 -26.32,-17.47 -42.42,-17.47z"/>
  <path class="fil1" d="M287.22 673.13c-5.12,0 -10.23,-1.96 -14.13,-5.86l-243.85 -243.85c-38.96,-38.98 -38.96,-102.39 0,-141.37l245.65 -245.63c38.95,-38.94 102.42,-38.94 141.36,0l243.85 243.86c7.81,7.81 7.81,20.46 0,28.27l-358.74 358.73c-3.9,3.91 -9.01,5.86 -14.14,5.86zm58.33 -625.91c-16.08,0 -31.13,6.21 -42.41,17.47l-245.64 245.63c-23.37,23.39 -23.37,61.42 0,84.8l229.72 229.7 330.45 -330.42 -229.72 -229.7c-11.28,-11.28 -26.33,-17.48 -42.41,-17.48z"/>
  <path class="fil1" d="M1125.7 1251.06c-65.14,0 -94.38,-39.36 -135.76,-80.73 -12.94,-12.93 -3.01,-34.9 15.01,-34.12 78.36,3.41 141.57,-61.01 138.19,-138.19 -0.8,-18.24 21.31,-27.81 34.12,-15.01l42.09 42.1c83.06,83.07 24.11,225.96 -93.66,225.96zm-77.26 -78.83c22.3,22.28 40.3,38.83 77.26,38.83 82.33,0 123.31,-99.73 65.38,-157.69l-11.97 -11.98c-14.57,65.23 -65.52,116.39 -130.67,130.84zm-189.88 -141.6c-14.25,0 -39.45,-31.16 -56.24,-47.95 -82.5,-82.53 -24.94,-225.98 93.65,-225.98 65.15,0 94.37,39.38 135.74,80.75 12.61,12.62 3.57,34.96 -15.02,34.1 -75.56,-3.5 -137.88,53.63 -137.88,139.04 0,11.19 -9.11,20.03 -20.24,20.03zm37.42 -233.93c-83.09,0 -122.76,100.32 -65.4,157.68l11.97 11.97c14.56,-65.18 65.53,-116.42 130.67,-130.82 -22.28,-22.27 -40.29,-38.83 -77.24,-38.83z"/>
  <path class="fil1" d="M1010.85 1176.33c-152.79,0 -230.33,-186.01 -121.94,-294.39 67.38,-67.37 176.5,-67.38 243.87,0 108.43,108.44 30.8,294.39 -121.93,294.39zm0 -304.89c-117.26,0 -176.98,142.76 -93.65,226.09 51.76,51.76 135.55,51.76 187.3,0 83.32,-83.33 23.61,-226.09 -93.65,-226.09z"/>
  <path class="fil1" d="M249.74 504.93c-5.13,0 -10.24,-1.96 -14.13,-5.86l-94.71 -94.7c-7.81,-7.81 -7.81,-20.46 0,-28.27l84.19 -84.18c7.82,-7.82 20.47,-7.82 28.28,0l94.7 94.71c7.81,7.81 7.81,20.46 0,28.27l-84.19 84.19c-3.92,3.89 -9.03,5.85 -14.14,5.85zm-66.43 -114.71l66.43 66.43 55.91 -55.91 -66.43 -66.42 -55.91 55.89z"/>
  <path class="fil1" d="M393.55 361.11c-5.3,0 -10.39,-2.11 -14.13,-5.86l-94.7 -94.71c-7.82,-7.8 -7.82,-20.47 0,-28.27l84.18 -84.2c7.5,-7.5 20.78,-7.5 28.27,0l94.71 94.71c7.82,7.8 7.82,20.47 0,28.27l-84.18 84.2c-3.75,3.75 -8.84,5.86 -14.14,5.86zm-66.42 -114.7l66.43 66.44 55.89 -55.91 -66.43 -66.44 -55.89 55.91z"/>
  <path class="fil1" d="M1042.68 1589.37c-17.64,0 -26.81,-21.5 -14.15,-34.15l533.66 -533.68c18.64,-18.64 46.91,9.69 28.29,28.29l-533.66 533.68c-3.91,3.91 -9.03,5.86 -14.14,5.86z"/>
  <path class="fil1" d="M1445.59 1547.93c-96.86,0 -145.94,-117.91 -77.28,-186.58 42.72,-42.73 111.84,-42.73 154.55,0.02 68.72,68.76 19.47,186.56 -77.28,186.56zm0 -178.59c-91.11,0 -91.09,138.61 0,138.61 91.1,0 91.09,-138.61 0,-138.61z"/>
  <path class="fil2" d="M1026.41 832.11c38.81,3.49 76.66,20.1 106.38,49.83 31.2,31.21 47,68.84 50.03,106.61l36.55 36.56c83.06,83.07 24.11,225.96 -93.66,225.96 -62.33,0 -91.79,-36.04 -130.47,-75.4 -87.99,-7.51 -147.81,-78.01 -155.94,-155.46 -12.43,-10.6 -26.38,-26.92 -36.98,-37.52 -82.5,-82.53 -24.94,-225.98 93.65,-225.98 62.34,0 91.78,36.05 130.44,75.4zm16.26 708.98l505.37 -505.38 -637.91 -637.92 -505.37 505.39 637.91 637.91z"/>
  <path class="fil3" d="M1179.11 1041.4c-14.4,64.48 -65.24,116.84 -130.55,130.96 22.24,22.21 40.24,38.7 77.14,38.7 82.33,0 123.31,-99.73 65.38,-157.69l-11.97 -11.98z"/>
  <path class="fil3" d="M888.9 881.93c22.71,-22.77 51.74,-39.19 84.32,-46.39 -22.28,-22.27 -40.29,-38.83 -77.24,-38.83 -83.09,0 -122.76,100.32 -65.4,157.68l11.65 11.65c6.68,-30.45 22.02,-59.4 46.67,-84.11z"/>
  <path class="fil0" d="M1575.93 1064.38l-504.58 504.59c139.92,125.13 356.54,120.53 490.83,-13.76 134.59,-134.58 139.17,-350.69 13.75,-490.83zm-207.61 296.97c42.72,-42.73 111.84,-42.73 154.55,0.02 68.72,68.76 19.47,186.56 -77.28,186.56 -96.86,0 -145.94,-117.91 -77.28,-186.58z"/>
  <path class="fil4" d="M1445.59 1507.94c91.1,0 91.09,-138.61 0,-138.61 -91.11,0 -91.09,138.61 0,138.61z"/>
  <path class="fil5" d="M287.22 624.83l330.45 -330.42 -229.72 -229.7c-23.33,-23.33 -61.48,-23.33 -84.81,-0.02l-245.64 245.63c-23.37,23.39 -23.37,61.42 0,84.8l229.72 229.7zm106.33 -263.72c-5.3,0 -10.39,-2.11 -14.13,-5.86l-94.7 -94.71c-7.82,-7.8 -7.82,-20.47 0,-28.27l84.18 -84.2c7.5,-7.5 20.78,-7.5 28.27,0l94.71 94.71c7.82,7.8 7.82,20.47 0,28.27l-84.18 84.2c-3.75,3.75 -8.84,5.86 -14.14,5.86zm-45.48 25.51c7.81,7.81 7.81,20.46 0,28.27l-84.19 84.19c-7.81,7.78 -20.45,7.81 -28.27,-0.02l-94.71 -94.7c-7.81,-7.81 -7.81,-20.46 0,-28.27l84.19 -84.18c7.82,-7.82 20.47,-7.82 28.28,0l94.7 94.71z"/>
  <polygon class="fil6" points="249.74,456.65 305.65,400.74 239.22,334.32 183.31,390.21 "/>
  <polygon class="fil6" points="327.13,246.41 393.56,312.84 449.45,256.94 383.02,190.5 "/>
  <path class="fil1" d="M376.46 923.17c-17.62,0 -26.79,-21.52 -14.13,-34.15l533.65 -533.65c18.63,-18.63 46.91,9.66 28.29,28.27l-533.65 533.67c-3.9,3.91 -9.02,5.86 -14.15,5.86z"/>
  <path class="fil0" d="M1010.85 871.44c-117.26,0 -176.98,142.76 -93.65,226.09 51.76,51.76 135.55,51.76 187.3,0 83.32,-83.33 23.61,-226.09 -93.65,-226.09z"/>
 </g>
</svg>
