<?xml version="1.0" encoding="UTF-8"?>
<!DOCTYPE svg PUBLIC "-//W3C//DTD SVG 1.1//EN" "http://www.w3.org/Graphics/SVG/1.1/DTD/svg11.dtd">
<!-- Creator: CorelDRAW -->
<svg xmlns="http://www.w3.org/2000/svg" xml:space="preserve" width="1.70666in" height="1.70666in" version="1.1" style="shape-rendering:geometricPrecision; text-rendering:geometricPrecision; image-rendering:optimizeQuality; fill-rule:evenodd; clip-rule:evenodd"
viewBox="0 0 1706.66 1706.66"
 xmlns:xlink="http://www.w3.org/1999/xlink"
 xmlns:xodm="http://www.corel.com/coreldraw/odm/2003">
 <defs>
  <style type="text/css">
   <![CDATA[
    .fil1 {fill:black}
    .fil2 {fill:#FF9621}
    .fil0 {fill:#FFB800}
   ]]>
  </style>
 </defs>
 <g id="Layer_x0020_1">
  <metadata id="CorelCorpID_0Corel-Layer"/>
  <path class="fil0" d="M991.13 291.66l-2.8 0.02 0 -65.64 177 0 82.33 84.2c3.7,3.81 8.79,5.97 14.11,6.03l404.74 3.93 0 436.03 -58.6 0 -0 -350.2c0,-10.97 -8.85,-19.89 -19.82,-20l-416.25 -4.03 -82.4 -84.3c-12.54,-12.87 -84.95,-6.16 -98.3,-6.04z"/>
  <path class="fil1" d="M1587.87 901.85l-718.17 0c-11.04,0 -20,-8.97 -20,-20l0 -570.2c0,-11.04 8.96,-20 20,-20l205.42 0c5.39,0 10.54,2.17 14.3,6.03l82.4 84.3 416.25 4.03c10.97,0.11 19.82,9.02 19.82,20l0 475.84c-0.01,11.04 -8.98,20 -20.02,20zm-698.17 -40l678.18 0 0 -436.03 -404.74 -3.92c-5.32,-0.06 -10.41,-2.22 -14.13,-6.02l-82.32 -84.22 -176.99 -0.01 0 530.2z"/>
  <path class="fil1" d="M1587.87 519.33l-718.17 0c-26.33,0 -26.33,-39.99 0,-39.99l718.19 0c26.33,0 26.33,39.99 -0.02,39.99z"/>
  <path class="fil1" d="M738.33 1520.61l-718.19 0c-11.04,0 -20,-8.97 -20,-20l0 -570.2c0,-11.04 8.96,-20 20,-20l205.42 0c5.39,0 10.54,2.17 14.3,6.02l82.4 84.29 416.27 4.04c10.97,0.1 19.8,9.01 19.8,19.98l0 475.85c-0.01,11.03 -8.95,20 -20,20zm-698.19 -40.01l678.19 0 0 -436.06 -404.76 -3.92c-5.31,-0.04 -10.39,-2.21 -14.11,-6.01l-82.32 -84.2 -177 0 0 530.19z"/>
  <path class="fil1" d="M1686.5 796.22l-98.62 0c-11.04,0 -20,-8.96 -20,-20l0 -350.41 -404.74 -3.91c-5.32,-0.06 -10.41,-2.22 -14.13,-6.03l-82.32 -84.22 -98.38 0c-11.04,0 -20,-8.96 -20,-20l0 -105.62c0,-11.04 8.97,-20 20,-20l205.42 0c5.39,0 10.54,2.17 14.29,6.03l82.41 84.29 416.25 4.04c10.97,0.11 19.82,9.02 19.82,20l0 475.84c-0.02,11.02 -8.97,19.98 -20.01,19.98zm-78.61 -39.99l58.61 0 0 -436.03 -404.74 -3.93c-5.31,-0.06 -10.4,-2.22 -14.11,-6.03l-82.33 -84.2 -177 0 0 65.64c117.26,0 75.78,-19.89 183.5,90.33l416.25 4.03c10.97,0.11 19.82,9.02 19.82,20l0 350.2 -0.02 0z"/>
  <path class="fil1" d="M836.95 1414.98l-98.62 0c-11.04,0 -20,-8.97 -20,-20l0 -350.43 -404.76 -3.92c-5.31,-0.04 -10.39,-2.21 -14.11,-6.01l-82.32 -84.2 -98.38 0c-11.04,0 -20,-8.97 -20,-20l0 -105.62c0,-11.04 8.96,-20 20,-20l205.42 -0.01c5.39,0 10.54,2.17 14.3,6.03l82.4 84.29 416.26 4.03c10.97,0.1 19.8,9.01 19.8,19.98l0 475.85c0,11.04 -8.96,20 -20,20zm-78.62 -40.01l58.63 0 0 -436.04 -404.76 -3.92c-5.31,-0.04 -10.39,-2.21 -14.11,-6.01l-82.32 -84.22 -177 0 0 65.63c117.26,0 75.77,-19.89 183.5,90.31l416.27 4.04c10.97,0.1 19.8,9.01 19.8,19.98l0 350.23 -0.01 0z"/>
  <path class="fil1" d="M738.33 1138.09l-718.19 0c-26.32,0 -26.32,-39.99 0,-39.99l718.19 0c26.31,0 26.33,39.99 0,39.99z"/>
  <path class="fil1" d="M500.5 833.24c-11.04,0 -20,-8.96 -20,-20l0 -236.87c0,-29.03 23.62,-52.66 52.66,-52.66l236.87 0c26.33,0 26.33,39.99 0,39.99l-236.87 0c-6.88,0 -12.68,5.81 -12.68,12.68l0 236.87c0.02,11.03 -8.94,19.98 -19.98,19.98z"/>
  <path class="fil1" d="M682.51 614.24c-20.32,0 -27.7,-27.12 -10.03,-37.33l57.56 -33.23c-36.63,-21.15 -79.1,-35.86 -64.87,-60.54 5.51,-9.57 17.73,-12.86 27.31,-7.31l87.56 50.55c13.3,7.68 13.31,26.95 0,34.63 -14.64,8.44 -86.5,53.24 -97.52,53.24z"/>
  <path class="fil1" d="M1233.8 1242.15l-236.86 0c-26.32,0 -26.31,-40 0,-40l236.86 0c6.88,0 12.68,-5.79 12.68,-12.66l-0 -236.89c0,-26.33 39.99,-26.31 39.99,0l0 236.87c0.02,29.04 -23.62,52.67 -52.67,52.67z"/>
  <path class="fil1" d="M1084.47 1292.71c-11.06,0 -82.87,-44.78 -97.54,-53.24 -13.32,-7.69 -13.32,-26.94 0,-34.63l87.56 -50.55c22.77,-13.15 42.8,21.46 20,34.63l-57.56 33.23c36.66,21.17 79.11,35.89 64.87,60.56 -3.69,6.41 -10.42,10 -17.33,10z"/>
  <polygon class="fil0" points="889.7,861.85 1567.88,861.85 1567.88,519.33 889.7,519.33 "/>
  <path class="fil2" d="M889.7 479.33l678.18 0 0 -53.52 -404.74 -3.91c-5.32,-0.06 -10.41,-2.22 -14.13,-6.03l-82.32 -84.22 -176.99 0 0 147.68z"/>
  <path class="fil0" d="M758.33 1374.97l0 0zm58.63 -436.04l-404.76 -3.92c-5.31,-0.04 -10.39,-2.21 -14.11,-6.01l-82.32 -84.22 -177 0 0 65.63c12.5,0 88.36,-7.07 101.1,6.02l82.4 84.29 416.27 4.04c10.97,0.1 19.8,9.01 19.8,19.98l-0.01 350.23 58.63 0 0 -436.04z"/>
  <path class="fil2" d="M718.33 1044.55l-404.76 -3.92c-5.31,-0.04 -10.39,-2.21 -14.11,-6.01l-82.32 -84.2 -177 0 0 147.68 678.19 0 0 -53.54z"/>
  <polygon class="fil0" points="718.33,1138.09 40.14,1138.09 40.14,1480.61 718.33,1480.61 "/>
 </g>
</svg>
