<?xml version="1.0" encoding="UTF-8"?>
<!DOCTYPE svg PUBLIC "-//W3C//DTD SVG 1.1//EN" "http://www.w3.org/Graphics/SVG/1.1/DTD/svg11.dtd">
<!-- Creator: CorelDRAW -->
<svg xmlns="http://www.w3.org/2000/svg" xml:space="preserve" width="1.70666in" height="1.70666in" version="1.1" style="shape-rendering:geometricPrecision; text-rendering:geometricPrecision; image-rendering:optimizeQuality; fill-rule:evenodd; clip-rule:evenodd"
viewBox="0 0 1706.66 1706.66"
 xmlns:xlink="http://www.w3.org/1999/xlink"
 xmlns:xodm="http://www.corel.com/coreldraw/odm/2003">
 <defs>
  <style type="text/css">
   <![CDATA[
    .fil0 {fill:black}
    .fil2 {fill:#FF9621}
    .fil1 {fill:#FFB800}
   ]]>
  </style>
 </defs>
 <g id="Layer_x0020_1">
  <metadata id="CorelCorpID_0Corel-Layer"/>
  <path class="fil0" d="M60.31 552.09c-11.04,0 -20,-8.96 -20,-20l0 -511.94c0,-11.04 8.96,-20 20,-20l521.99 0c26.32,0 26.32,39.99 0,39.99l-501.99 0 0 491.95c0,11.05 -8.94,20 -20,20z"/>
  <path class="fil0" d="M1646.34 552.09c-11.04,0 -20,-8.96 -20,-20l0 -491.95 -501.97 0c-26.33,0 -26.31,-39.99 0,-39.99l521.98 0c11.04,0 20,8.96 20,20l0 511.94c0,11.05 -8.97,20 -20.01,20z"/>
  <path class="fil0" d="M582.3 1706.5l-521.99 0c-11.04,0 -20,-8.97 -20,-20l0 -511.96c0,-26.32 39.99,-26.31 39.99,0l0 491.97 501.99 0c26.31,0 26.33,39.99 0,39.99z"/>
  <path class="fil0" d="M1646.34 1706.5l-521.98 0c-26.33,0 -26.31,-39.99 0,-39.99l501.98 0 0 -491.97c0,-26.32 39.99,-26.31 39.99,0l0 511.96c0.02,11.04 -8.94,20 -19.99,20z"/>
  <path class="fil0" d="M1360.27 1275.81l-1013.88 0c-11.04,0 -20,-8.97 -20,-20l0 -804.95c0,-11.04 8.96,-20 20,-20l290 0c5.39,0 10.54,2.17 14.3,6.03l118.7 121.44 591.06 5.72c10.97,0.11 19.81,9.03 19.81,20l0 671.75c-0,11.03 -8.96,20 -20,20zm-993.88 -40.01l973.87 0 0 -631.93 -579.54 -5.63c-5.31,-0.06 -10.39,-2.22 -14.11,-6.02l-118.62 -121.37 -261.61 0 0 764.96z"/>
  <path class="fil0" d="M1360.27 735.78l-1013.88 0c-26.32,0 -26.32,-40 0,-40l1013.88 0c26.32,0 26.33,40 0,40z"/>
  <path class="fil0" d="M1439.31 243.85l-1171.98 0c-26.33,0 -26.33,-39.99 0,-39.99l1171.98 0c26.32,0 26.32,39.99 0,39.99z"/>
  <path class="fil0" d="M1439.31 1502.8l-1171.98 0c-26.32,0 -26.32,-39.99 0,-39.99l1171.98 0c26.32,0 26.32,39.99 0,39.99z"/>
  <polygon class="fil1" points="366.39,1235.8 1340.26,1235.8 1340.26,735.78 366.39,735.78 "/>
  <path class="fil2" d="M366.39 695.79l973.87 0 0 -91.92 -579.54 -5.63c-5.31,-0.06 -10.39,-2.22 -14.11,-6.02l-118.62 -121.37 -261.61 0 0 224.94z"/>
 </g>
</svg>
