<?xml version="1.0" encoding="UTF-8"?>
<!DOCTYPE svg PUBLIC "-//W3C//DTD SVG 1.1//EN" "http://www.w3.org/Graphics/SVG/1.1/DTD/svg11.dtd">
<!-- Creator: CorelDRAW -->
<svg xmlns="http://www.w3.org/2000/svg" xml:space="preserve" width="1.70666in" height="1.70666in" version="1.1" style="shape-rendering:geometricPrecision; text-rendering:geometricPrecision; image-rendering:optimizeQuality; fill-rule:evenodd; clip-rule:evenodd"
viewBox="0 0 1706.66 1706.66"
 xmlns:xlink="http://www.w3.org/1999/xlink"
 xmlns:xodm="http://www.corel.com/coreldraw/odm/2003">
 <defs>
  <style type="text/css">
   <![CDATA[
    .fil0 {fill:black}
    .fil1 {fill:#B3B3B3}
    .fil2 {fill:white}
   ]]>
  </style>
 </defs>
 <g id="Layer_x0020_1">
  <metadata id="CorelCorpID_0Corel-Layer"/>
  <path class="fil0" d="M506.04 1706.52c-5.14,0 -10.26,-1.97 -14.17,-5.9l-190.76 -191.56c-8.31,-8.34 -8.33,-32.94 0.04,-41.33l82.71 -82.71 -82.71 -82.69c-3.75,-3.76 -5.86,-8.84 -5.86,-14.15l0 -149.83c0,-5.31 2.11,-10.39 5.86,-14.15l82.71 -82.69 -82.71 -82.69c-3.75,-3.76 -5.86,-8.85 -5.86,-14.15l0 -148.86c-145.17,-84.38 -226.2,-246.4 -206.97,-413.17 24.46,-212.4 204.41,-372.59 418.56,-372.59 232.33,0 421.35,189.02 421.35,421.35 0,150.5 -80.08,289.06 -209.78,364.45l0 699.13c0,5.31 -2.11,10.41 -5.89,14.18l-192.41 191.57c-3.9,3.86 -9,5.8 -14.11,5.8zm-169.03 -218.09l169.09 169.81 172.35 -171.61 0 -702.51c0,-7.32 4,-14.07 10.43,-17.57 122.96,-66.92 199.34,-195.35 199.34,-335.2 0,-210.28 -171.06,-381.36 -381.35,-381.36 -210.99,0 -381.36,170.52 -381.36,381.36 0,139.84 76.37,268.29 199.32,335.19 6.43,3.5 10.43,10.23 10.43,17.57l0 152.28c3.83,19.26 120.98,89.25 90.99,119.28l-90.99 90.98 0 133.27 90.99 90.98c7.8,7.83 7.81,20.48 0,28.3l-89.25 89.22z"/>
  <path class="fil0" d="M588.06 513.65l-150.53 0c-11.04,0 -20,-8.96 -20,-20l0 -171.05c0,-11.04 8.96,-20 20,-20l150.53 0c11.04,0 20,8.96 20,20l0 171.05c0,11.04 -8.94,20 -20,20zm-130.52 -39.99l110.54 0 0 -131.06 -110.54 0 0 131.06z"/>
  <path class="fil0" d="M1530.29 1529l-266.21 -71.24c-11.36,-3.07 -23.71,-24.37 -20.65,-35.8l30.27 -112.97 -112.98 -30.29c-5.11,-1.37 -9.5,-4.72 -12.13,-9.31l-74.92 -129.77c-2.65,-4.58 -3.37,-10.06 -2,-15.18l30.26 -112.96 -112.98 -30.29c-5.11,-1.38 -9.48,-4.72 -12.14,-9.32l-74.41 -128.92c-68.85,-0.24 -137.31,-17.51 -198.09,-50.02 -13.66,-7.31 -14.13,-26.78 -0.89,-34.77 254.79,-153.64 242.55,-523.71 -16.29,-662.98 -10.39,-5.59 -20.09,-23.55 5.58,-38.54 199.48,-116.46 459.56,-46.76 575.6,154.21 75.26,130.34 75.19,290.36 0.56,420.52l349.59 605.5c2.65,4.6 3.37,10.08 1.98,15.22l-70.87 262.12c-2.4,8.9 -10.46,14.78 -19.28,14.78zm-245.46 -107.05l231.35 62.53 63.48 -234.79 -351.25 -608.39c-3.67,-6.34 -3.57,-14.17 0.26,-20.43 155.78,-254.47 -28.85,-580.71 -325.62,-580.71 -57.38,0 -114.23,13.16 -165.97,38.25 246.45,160.76 256.9,520.89 17.15,694.12 114.9,48.67 162.51,15.26 176.97,40.34l76.12 131.87 124.28 33.3c10.67,2.85 17,13.82 14.13,24.5l-33.28 124.28 66.64 115.43 124.28 33.3c10.67,2.84 17,13.82 14.13,24.49l-32.67 121.92z"/>
  <path class="fil0" d="M903.44 513.48c-45.05,0 10.84,-65.47 -34.54,-202.22 -6.8,-20.5 18.35,-29.06 40.43,-41.78 9.53,-5.49 21.79,-2.27 27.33,7.32l85.53 148.14c5.52,9.58 2.23,21.82 -7.32,27.33 -16.01,9.24 -100.13,61.22 -111.44,61.22zm8.28 -199.2c13.36,46.28 18.57,93.96 15.76,142.24l50.07 -28.91 -65.54 -113.51 -0.3 0.18z"/>
  <path class="fil0" d="M564.24 1451.13c-11.04,0 -20,-8.97 -20,-20l0 -612.91c0,-26.33 39.99,-26.33 39.99,0l0 612.91c0,11.03 -8.96,20 -20,20z"/>
  <path class="fil0" d="M1483.59 1289.96c-6.9,0 -13.63,-3.59 -17.33,-10.02l-306.44 -530.78c-13.15,-22.81 21.46,-42.78 34.63,-20l306.44 530.79c7.74,13.42 -2.11,30 -17.3,30z"/>
  <path class="fil1" d="M702.24 758.94c156.33,-93.39 224.53,-285.15 163.73,-456 -52.83,-147.3 -193.85,-252.94 -359.1,-252.94 -210.99,0 -381.36,170.52 -381.36,381.36 0,139.84 76.37,268.29 199.32,335.19 6.43,3.5 10.43,10.23 10.43,17.57l0 152.28c5.25,12.67 96.85,84 96.85,105.13 0,5.31 -2.11,10.39 -5.86,14.15l-90.99 90.98 0 133.27 90.99 90.98c7.8,7.83 7.81,20.48 0,28.3l-89.25 89.22 169.09 169.81 172.35 -171.61 0 -702.51c0,-14.58 12.44,-18.41 23.79,-25.19zm-114.18 -245.29l-150.53 0c-11.04,0 -20,-8.96 -20,-20l0 -171.05c0,-11.04 8.96,-20 20,-20l150.53 0c11.04,0 20,8.96 20,20l0 171.05c0,11.04 -8.94,20 -20,20zm-43.82 304.57c0,-26.33 39.99,-26.33 39.99,0l0 612.91c0,26.32 -39.99,26.32 -39.99,0l0 -612.91z"/>
  <polygon class="fil2" points="457.55,473.66 568.08,473.66 568.08,342.6 457.55,342.6 "/>
  <path class="fil1" d="M936.67 276.79l85.53 148.14c5.52,9.58 2.23,21.82 -7.32,27.33 -12.24,7.07 -64.33,39.13 -93.21,53.83 -17.96,101.93 -73.67,198.89 -167.43,266.45 114.9,48.67 162.51,15.26 176.97,40.34l76.12 131.87 124.28 33.3c10.67,2.85 17,13.82 14.13,24.5l-33.28 124.28 66.64 115.43 124.28 33.3c10.67,2.84 17,13.82 14.13,24.49l-32.67 121.92 231.35 62.53 63.48 -234.79 -351.25 -608.39c-3.67,-6.34 -3.57,-14.17 0.26,-20.43 155.78,-254.47 -28.85,-580.71 -325.62,-580.71 -57.38,0 -114.23,13.16 -165.97,38.25 76.91,50.17 130.84,119.76 161.35,197.02 9.46,-5.04 27.45,-17.32 38.24,1.35zm257.78 452.38l306.44 530.79c13.28,23.02 -21.6,42.56 -34.63,19.98l-306.44 -530.78c-13.15,-22.81 21.46,-42.78 34.63,-20z"/>
  <path class="fil2" d="M977.55 427.61l-65.54 -113.51 -0.3 0.18c13.33,46.15 18.63,94.36 15.76,142.24l50.07 -28.91z"/>
 </g>
</svg>
