<?xml version="1.0" encoding="UTF-8"?>
<!DOCTYPE svg PUBLIC "-//W3C//DTD SVG 1.1//EN" "http://www.w3.org/Graphics/SVG/1.1/DTD/svg11.dtd">
<!-- Creator: CorelDRAW -->
<svg xmlns="http://www.w3.org/2000/svg" xml:space="preserve" width="1.70666in" height="1.70666in" version="1.1" style="shape-rendering:geometricPrecision; text-rendering:geometricPrecision; image-rendering:optimizeQuality; fill-rule:evenodd; clip-rule:evenodd"
viewBox="0 0 1706.66 1706.66"
 xmlns:xlink="http://www.w3.org/1999/xlink"
 xmlns:xodm="http://www.corel.com/coreldraw/odm/2003">
 <defs>
  <style type="text/css">
   <![CDATA[
    .fil0 {fill:black}
    .fil2 {fill:#78B4BE}
    .fil1 {fill:white}
   ]]>
  </style>
 </defs>
 <g id="Layer_x0020_1">
  <metadata id="CorelCorpID_0Corel-Layer"/>
  <path class="fil0" d="M853.33 1706.5c-470.44,0 -853.17,-382.75 -853.17,-853.17 0,-470.44 382.73,-853.17 853.17,-853.17 470.44,0 853.17,382.73 853.17,853.17 0,470.44 -382.73,853.17 -853.17,853.17zm0 -1666.37c-448.39,0 -813.18,364.79 -813.18,813.2 0,448.39 364.79,813.18 813.18,813.18 448.39,0 813.18,-364.8 813.18,-813.18 0,-448.41 -364.79,-813.2 -813.18,-813.2z"/>
  <path class="fil0" d="M1141.2 1517.31l-557.26 0c-13.19,0 -22.78,-12.65 -19.26,-25.35l140.03 -503.74c-159.04,-61.17 -264.6,-213.83 -264.6,-385.68 0,-227.85 185.37,-413.22 413.21,-413.22 227.85,0 413.23,185.37 413.23,413.22 0,163.31 -98.65,313.16 -247.27,378.51l141.94 516.25c-0.01,11.06 -8.96,20.01 -20.02,20.01zm-530.94 -39.99l504.42 0 -138.64 -502.66c-2.73,-9.9 2.47,-20.26 12.04,-23.97 142.64,-55.26 238.47,-195.16 238.47,-348.15 0,-205.79 -167.43,-373.22 -373.22,-373.22 -205.79,0 -373.22,167.43 -373.22,373.22 0,160.98 102.55,303.3 255.18,354.15 10.11,3.36 15.8,14.07 12.94,24.33l-137.96 496.28z"/>
  <path class="fil0" d="M1406.77 1032.56c-11.04,0 -20,-8.97 -20,-20l0 -80.51c0,-26.33 39.99,-26.31 39.99,0l0 80.51c0.01,11.04 -8.96,20 -20,20z"/>
  <path class="fil0" d="M299.89 1032.56c-11.04,0 -20,-8.97 -20,-20l0 -80.51c0,-26.33 39.99,-26.31 39.99,0l0 80.51c0,11.04 -8.95,20 -20,20z"/>
  <path class="fil1" d="M480.11 602.55c0,160.98 102.55,303.3 255.18,354.15 10.11,3.36 15.8,14.07 12.94,24.33l-137.96 496.28 504.42 0 -138.64 -502.66c-2.73,-9.9 2.47,-20.26 12.04,-23.97 142.64,-55.26 238.47,-195.16 238.47,-348.15 0,-205.79 -167.43,-373.22 -373.22,-373.22 -205.79,0 -373.22,167.43 -373.22,373.22z"/>
  <path class="fil2" d="M853.33 189.33c227.85,0 413.23,185.37 413.23,413.22 0,163.31 -98.65,313.16 -247.27,378.51l141.94 516.25c-0.01,11.06 -8.96,20.01 -20.02,20.01l-557.26 0c-13.19,0 -22.78,-12.65 -19.26,-25.35l140.03 -503.74c-159.04,-61.17 -264.6,-213.83 -264.6,-385.68 0,-227.85 185.37,-413.22 413.21,-413.22zm-533.44 823.24c0,26.33 -39.99,26.31 -39.99,0l0 -80.51c0,-26.33 39.99,-26.31 39.99,0l0 80.51zm-279.74 -159.23c0,448.39 364.79,813.18 813.18,813.18 448.39,0 813.18,-364.8 813.18,-813.18 0,-448.41 -364.79,-813.2 -813.18,-813.2 -448.39,0 -813.18,364.79 -813.18,813.2zm1346.62 78.72c0,-26.33 39.99,-26.31 39.99,0l0 80.51c0.02,26.32 -39.99,26.32 -39.99,0l0 -80.51z"/>
 </g>
</svg>
