<?xml version="1.0" encoding="UTF-8"?>
<!DOCTYPE svg PUBLIC "-//W3C//DTD SVG 1.1//EN" "http://www.w3.org/Graphics/SVG/1.1/DTD/svg11.dtd">
<!-- Creator: CorelDRAW -->
<svg xmlns="http://www.w3.org/2000/svg" xml:space="preserve" width="1.70666in" height="1.70666in" version="1.1" style="shape-rendering:geometricPrecision; text-rendering:geometricPrecision; image-rendering:optimizeQuality; fill-rule:evenodd; clip-rule:evenodd"
viewBox="0 0 1706.66 1706.66"
 xmlns:xlink="http://www.w3.org/1999/xlink"
 xmlns:xodm="http://www.corel.com/coreldraw/odm/2003">
 <defs>
  <style type="text/css">
   <![CDATA[
    .fil0 {fill:black}
    .fil7 {fill:#005B94}
    .fil2 {fill:teal}
    .fil1 {fill:#5684B9}
    .fil6 {fill:#638A9B}
    .fil4 {fill:#BCC7DD}
    .fil5 {fill:#F5648F}
    .fil3 {fill:#FFC3A1}
   ]]>
  </style>
 </defs>
 <g id="Layer_x0020_1">
  <metadata id="CorelCorpID_0Corel-Layer"/>
  <path class="fil0" d="M518.86 1518.87l-338.61 0c-24.83,0 -45.03,-20.21 -45.03,-45.05l0 -84.52c0,-66.25 53.91,-120.17 120.17,-120.17l188.33 0c66.27,0 120.17,53.92 120.17,120.17l0 84.52c0,24.85 -20.21,45.05 -45.04,45.05zm-263.48 -209.75c-44.21,0 -80.18,35.97 -80.18,80.17l0 84.52c0,2.73 2.32,5.04 5.04,5.04l338.61 0c2.74,0 5.04,-2.3 5.04,-5.04l0 -84.52c0,-44.21 -35.97,-80.17 -80.18,-80.17l-188.33 -0z"/>
  <path class="fil0" d="M349.56 1261.76c-59.15,0 -107.29,-48.13 -107.29,-107.29 0,-59.16 48.13,-107.29 107.29,-107.29 59.16,0 107.29,48.13 107.29,107.29 0,59.16 -48.14,107.29 -107.29,107.29zm0 -174.55c-88.57,0 -88.57,134.56 0,134.56 88.57,0 88.57,-134.56 0,-134.56z"/>
  <path class="fil0" d="M618.94 1579.52l-538.78 0c-43.91,0 -79.64,-35.73 -79.64,-79.64l0 -438.74c0,-43.91 35.73,-79.64 79.64,-79.64l538.78 0c43.93,0 79.64,35.73 79.64,79.64l0 438.74c0,43.91 -35.71,79.64 -79.64,79.64zm-538.78 -558.02c-21.86,0 -39.65,17.78 -39.65,39.63l0 438.74c0,21.86 17.78,39.63 39.65,39.63l538.78 0.01c21.87,0 39.65,-17.78 39.65,-39.63l0 -438.73c0,-21.86 -17.78,-39.63 -39.65,-39.63l-538.78 0 0 -0.02z"/>
  <path class="fil0" d="M1526.41 1518.87l-338.6 0c-24.84,0 -45.05,-20.21 -45.05,-45.05l0 -84.52c0,-66.25 53.92,-120.17 120.17,-120.17l188.34 0c66.25,0 120.17,53.92 120.17,120.17l0 84.52c0.01,24.85 -20.19,45.05 -45.04,45.05zm-263.48 -209.75c-44.21,0 -80.16,35.97 -80.16,80.17l0 84.52c0,2.73 2.3,5.04 5.04,5.04l338.6 0c2.73,0 5.04,-2.3 5.04,-5.04l0 -84.52c0,-44.21 -35.97,-80.17 -80.17,-80.17l-188.35 -0z"/>
  <path class="fil0" d="M1357.09 1261.76c-59.16,0 -107.29,-48.13 -107.29,-107.29 0,-59.16 48.13,-107.29 107.29,-107.29 59.16,0 107.3,48.13 107.3,107.29 0,59.16 -48.14,107.29 -107.3,107.29zm0 -174.55c-88.55,0 -88.55,134.56 0,134.56 88.57,0 88.56,-134.56 0,-134.56z"/>
  <path class="fil0" d="M1626.5 1579.52l-538.79 0c-43.91,0 -79.64,-35.73 -79.64,-79.64l0 -438.74c0,-43.91 35.73,-79.64 79.64,-79.64l538.79 0c43.93,0 79.65,35.73 79.65,79.64l0 438.74c0,43.91 -35.73,79.64 -79.65,79.64zm-538.79 -558.02c-21.86,0 -39.63,17.78 -39.63,39.63l0 438.74c0,21.86 17.78,39.63 39.63,39.63l538.79 0.01c21.87,0 39.65,-17.78 39.65,-39.63l0 -438.73c0,-21.86 -17.78,-39.63 -39.65,-39.63l-538.79 0 0 -0.02z"/>
  <path class="fil0" d="M1024.3 664.51l-338.61 0c-24.84,0 -45.04,-20.2 -45.04,-45.03l0 -84.52c0,-66.27 53.91,-120.17 120.17,-120.17l188.34 -0c66.25,0 120.17,53.91 120.17,120.17l0 84.53c0.02,24.83 -20.19,45.04 -45.03,45.04zm-263.48 -209.74c-44.21,0 -80.18,35.97 -80.18,80.18l0 84.53c0,2.73 2.32,5.04 5.05,5.04l338.59 0c2.73,0 5.04,-2.32 5.04,-5.04l0 -84.52c0,-44.21 -35.97,-80.18 -80.17,-80.18l-188.34 -0z"/>
  <path class="fil0" d="M854.99 405.93c-58.33,0 -105.8,-47.45 -105.8,-105.8 0,-58.35 47.45,-105.8 105.8,-105.8 58.35,0 105.8,47.45 105.8,105.8 0,58.35 -47.47,105.8 -105.8,105.8zm0 -171.61c-86.61,0 -86.61,131.62 0,131.62 86.6,0 86.59,-131.62 0,-131.62z"/>
  <path class="fil0" d="M1124.4 725.16l-538.79 0c-43.92,0 -79.64,-35.73 -79.64,-79.64l0 -438.74c0,-43.93 35.73,-79.64 79.64,-79.64l538.79 0c43.91,0 79.64,35.73 79.64,79.64l0 438.72c0,43.93 -35.73,79.65 -79.64,79.65zm-538.8 -558.02c-21.87,0 -39.65,17.79 -39.65,39.65l0 438.72c0,21.87 17.79,39.65 39.65,39.65l538.79 0c21.86,0 39.63,-17.79 39.63,-39.65l0 -438.72c0,-21.87 -17.78,-39.65 -39.63,-39.65l-538.79 0z"/>
  <path class="fil0" d="M1378.38 1021.5c-11.04,0 -20,-8.97 -20,-20l0 -128.17 -503.39 0c-11.04,0 -20,-8.97 -20,-20l0 -148.17c0,-26.32 39.99,-26.32 39.99,0l0 128.17 503.38 0c11.04,0 20,8.96 20,20l0 148.17c0.02,11.04 -8.96,20 -19.98,20z"/>
  <path class="fil0" d="M331.62 1021.5c-11.04,0 -20,-8.97 -20,-20l0 -148.17c0,-11.04 8.96,-20 20,-20l503.38 0 0 -128.17c0,-26.32 39.99,-26.32 39.99,0l0 148.17c0,11.04 -8.97,20 -20,20l-503.38 0 0 128.15c0,11.05 -8.96,20.01 -20,20.01z"/>
  <path class="fil1" d="M949.15 414.78c66.25,0 120.17,53.91 120.17,120.17l0 84.53c0.02,24.83 -20.19,45.04 -45.03,45.04l-338.61 0c-24.84,0 -45.04,-20.2 -45.04,-45.03l0 -84.52c0,-66.27 53.91,-120.17 120.17,-120.17l188.34 -0zm-363.56 270.38l538.79 0c21.86,0 39.63,-17.79 39.63,-39.65l0 -438.72c0,-21.87 -17.78,-39.65 -39.63,-39.65l-538.79 0c-21.87,0 -39.65,17.79 -39.65,39.65l0 438.72c0,21.87 17.79,39.65 39.65,39.65zm375.2 -385.02c0,58.35 -47.47,105.8 -105.8,105.8 -58.33,0 -105.8,-47.45 -105.8,-105.8 0,-58.35 47.45,-105.8 105.8,-105.8 58.35,0 105.8,47.45 105.8,105.8z"/>
  <path class="fil2" d="M1029.32 534.95c0,-44.21 -35.97,-80.18 -80.17,-80.18l-188.34 -0c-44.21,0 -80.18,35.97 -80.18,80.18l0 84.53c0,2.73 2.32,5.04 5.05,5.04l338.59 0c2.73,0 5.04,-2.32 5.04,-5.04l0 -84.52z"/>
  <path class="fil3" d="M854.99 365.94c86.6,0 86.59,-131.62 0,-131.62 -86.61,0 -86.61,131.62 0,131.62z"/>
  <path class="fil4" d="M1087.71 1021.5l0 0zm290.67 0l-290.67 0c-21.86,0 -39.63,17.78 -39.63,39.63l0 438.74c0,21.86 17.78,39.63 39.63,39.63l538.79 0.01c21.87,0 39.65,-17.78 39.65,-39.63l0 -438.73c0,-21.86 -17.78,-39.63 -39.65,-39.63l-248.11 -0.02zm-21.29 240.26c-59.16,0 -107.29,-48.13 -107.29,-107.29 0,-59.16 48.13,-107.29 107.29,-107.29 59.16,0 107.3,48.13 107.3,107.29 0,59.16 -48.14,107.29 -107.3,107.29zm-94.17 7.37l188.34 0c66.25,0 120.17,53.92 120.17,120.17l0 84.52c0.01,24.85 -20.19,45.05 -45.04,45.05l-338.6 0c-24.84,0 -45.05,-20.21 -45.05,-45.05l0 -84.52c0,-66.25 53.92,-120.17 120.17,-120.17z"/>
  <path class="fil3" d="M1357.09 1087.2c-88.55,0 -88.55,134.56 0,134.56 88.57,0 88.56,-134.56 0,-134.56z"/>
  <path class="fil5" d="M1451.28 1309.13l-188.35 -0c-44.21,0 -80.16,35.97 -80.16,80.17l0 84.52c0,2.73 2.3,5.04 5.04,5.04l338.6 0c2.73,0 5.04,-2.3 5.04,-5.04l0 -84.52c0,-44.21 -35.97,-80.17 -80.17,-80.17z"/>
  <path class="fil6" d="M80.15 1021.5l0 0zm578.43 478.37l0 -438.73c0,-21.86 -17.78,-39.63 -39.65,-39.63l-538.78 -0.02c-21.86,0 -39.65,17.78 -39.65,39.63l0 438.74c0,21.86 17.78,39.63 39.65,39.63l538.78 0.01c21.87,0 39.65,-17.78 39.65,-39.63zm-201.74 -345.4c0,59.16 -48.14,107.29 -107.29,107.29 -59.15,0 -107.29,-48.13 -107.29,-107.29 0,-59.16 48.13,-107.29 107.29,-107.29 59.16,0 107.29,48.13 107.29,107.29zm-13.12 114.66c66.27,0 120.17,53.92 120.17,120.17l0 84.52c0,24.85 -20.21,45.05 -45.04,45.05l-338.61 0c-24.83,0 -45.03,-20.21 -45.03,-45.05l0 -84.52c0,-66.25 53.91,-120.17 120.17,-120.17l188.33 0z"/>
  <path class="fil3" d="M349.56 1221.76c88.57,0 88.57,-134.56 0,-134.56 -88.57,0 -88.57,134.56 0,134.56z"/>
  <path class="fil7" d="M443.7 1309.13l-188.33 -0c-44.21,0 -80.18,35.97 -80.18,80.17l0 84.52c0,2.73 2.32,5.04 5.04,5.04l338.61 0c2.74,0 5.04,-2.3 5.04,-5.04l0 -84.52c0,-44.21 -35.97,-80.17 -80.18,-80.17z"/>
 </g>
</svg>
